<svg xmlns="http://www.w3.org/2000/svg" version="1.1" xmlns:xlink="http://www.w3.org/1999/xlink" xmlns:svgjs="http://svgjs.dev/svgjs" width="48" height="48"><svg xmlns="http://www.w3.org/2000/svg" fill="none" viewBox="0 0 48 48"><path fill="#4770FF" d="M0 3a3 3 0 013-3h15a3 3 0 013 3v42a3 3 0 01-3 3H3a3 3 0 01-3-3V3zm27 0a3 3 0 013-3h15a3 3 0 013 3v15a3 3 0 01-3 3H30a3 3 0 01-3-3V3zm0 27a3 3 0 013-3h15a3 3 0 013 3v15a3 3 0 01-3 3H30a3 3 0 01-3-3V30z"></path></svg><style>@media (prefers-color-scheme: light) { :root { filter: none; } }
@media (prefers-color-scheme: dark) { :root { filter: none; } }
</style></svg>