<!DOCTYPE svg PUBLIC "-//W3C//DTD SVG 1.1//EN" "http://www.w3.org/Graphics/SVG/1.1/DTD/svg11.dtd">
<!-- Uploaded to: SVG Repo, www.svgrepo.com, Transformed by: SVG Repo Mixer Tools -->
<svg version="1.1" id="Icons" xmlns="http://www.w3.org/2000/svg" xmlns:xlink="http://www.w3.org/1999/xlink" viewBox="0 0 32 32" xml:space="preserve" width="800px" height="800px" fill="#4770ff ">
<g id="SVGRepo_bgCarrier" stroke-width="0"/>
<g id="SVGRepo_tracerCarrier" stroke-linecap="round" stroke-linejoin="round"/>
<g id="SVGRepo_iconCarrier"> <style type="text/css"> .st0{fill:none;stroke:#4770ff ;stroke-width:2;stroke-linecap:round;stroke-linejoin:round;stroke-miterlimit:10;} .st1{fill:none;stroke:#4770ff ;stroke-width:2;stroke-linejoin:round;stroke-miterlimit:10;} </style> <path class="st0" d="M19,23v4c0,1.1-0.9,2-2,2H7c-1.1,0-2-0.9-2-2V5c0-1.1,0.9-2,2-2h10c1.1,0,2,0.9,2,2v2"/> <line class="st0" x1="5" y1="7" x2="19" y2="7"/> <line class="st0" x1="5" y1="23" x2="19" y2="23"/> <line class="st0" x1="11" y1="26" x2="13" y2="26"/> <polyline class="st0" points="14,12 11,15 14,18 "/> <polyline class="st0" points="24,12 27,15 24,18 "/> <line class="st0" x1="21" y1="11" x2="17" y2="19"/> </g>
</svg>