<?xml version="1.0" encoding="UTF-8"?>
<svg version="1.1" xmlns="http://www.w3.org/2000/svg" width="135" height="134">
<path d="M0 0 C4.16509806 3.82031124 8.19204123 7.77868773 12.1940918 11.76855469 C14.07743155 13.63983594 15.97868584 15.49164009 17.88085938 17.34375 C19.07926441 18.53270681 20.27657164 19.72277139 21.47265625 20.9140625 C22.04331314 21.46518707 22.61397003 22.01631165 23.20191956 22.58413696 C24.76196289 24.16259766 24.76196289 24.16259766 27 27 C26.74869942 30.68785502 24.88286199 32.48713494 22.33813477 35.01831055 C21.56385635 35.79559006 20.78957794 36.57286957 19.99183655 37.373703 C19.15019455 38.2029982 18.30855255 39.0322934 17.44140625 39.88671875 C16.58191879 40.74433304 15.72243134 41.60194733 14.8368988 42.48554993 C13.0187028 44.29702252 11.19691213 46.10489317 9.37182617 47.90942383 C6.5701583 50.67992689 3.77931077 53.46096756 0.99023438 56.24414062 C-0.77541975 58.00062538 -2.54167553 59.7565056 -4.30859375 61.51171875 C-5.14821152 62.34708664 -5.98782928 63.18245453 -6.85289001 64.0431366 C-7.63032059 64.81095963 -8.40775116 65.57878265 -9.20874023 66.36987305 C-9.89411362 67.04841843 -10.579487 67.72696381 -11.28562927 68.42607117 C-13.43908028 70.40311066 -14.73986128 70.95044977 -17.625 71.5 C-22.78729781 70.73521514 -25.38564868 67.58742878 -29 64 C-29.74378906 63.28199219 -30.48757812 62.56398438 -31.25390625 61.82421875 C-37.76800713 55.44995546 -37.76800713 55.44995546 -38.5 50.875 C-37.78052811 45.29909288 -34.89128018 42.85477661 -31 39 C-30.28199219 38.2575 -29.56398437 37.515 -28.82421875 36.75 C-22.51228192 30.2880537 -22.51228192 30.2880537 -18.375 29.5 C-13.9156548 30.16064373 -12.02014563 32.2173752 -8.83203125 35.2734375 C-6.91178216 37.17940899 -6.91178216 37.17940899 -4 39 C-1.69 36.69 0.62 34.38 3 32 C-5.26350202 21.64716928 -5.26350202 21.64716928 -17.26635742 17.05712891 C-24.24030006 16.91138428 -29.86287745 20.52170303 -34.80859375 25.15234375 C-36.36729772 26.73202271 -37.91020242 28.32743608 -39.4375 29.9375 C-40.22576172 30.73607422 -41.01402344 31.53464844 -41.82617188 32.35742188 C-47.35883049 38.04075715 -51.43745722 42.62036129 -52.0546875 50.73828125 C-51.87696387 58.08842281 -46.78377855 63.01479919 -42 68 C-41.53819336 68.48758789 -41.07638672 68.97517578 -40.60058594 69.47753906 C-39.05737266 71.10035071 -37.50007767 72.70833741 -35.9375 74.3125 C-35.4432251 74.8283667 -34.9489502 75.3442334 -34.43969727 75.87573242 C-29.68863829 80.66768778 -24.88193025 83.47858915 -18.0625 84.046875 C-9.37341627 83.84939582 -3.7604877 77.82028515 2 72 C2.95787185 70.91345879 3.8999646 69.8123864 4.8125 68.6875 C7.00720803 65.99114443 9.26170919 64.12217538 12 62 C13.68114083 60.34592584 15.34346396 58.67839649 17 57 C18.20887392 55.78960357 19.41856535 54.58002327 20.62890625 53.37109375 C21.27150391 52.72849609 21.91410156 52.08589844 22.57617188 51.42382812 C27.05078125 46.94921875 31.52539062 42.47460937 36 38 C39.57895288 41.57895288 39.22018518 45.34340151 39.3125 50.1875 C39.36857422 52.09595703 39.36857422 52.09595703 39.42578125 54.04296875 C38.43668589 63.23520361 32.87221318 68.72391934 26.578125 74.953125 C25.34990021 76.18709015 25.34990021 76.18709015 24.09686279 77.44598389 C22.37026917 79.17528847 20.63865791 80.89959621 18.90234375 82.61914062 C16.25826263 85.2418043 13.63619789 87.88512014 11.015625 90.53125 C9.32940596 92.21482562 7.64194643 93.8971599 5.953125 95.578125 C5.17575989 96.36358704 4.39839478 97.14904907 3.59747314 97.95831299 C-2.57340259 104.0250684 -8.75290119 108.49298734 -17.64453125 109.08984375 C-30.29455227 108.6073388 -37.67249378 99.47886794 -46.11328125 91.08984375 C-46.84951218 90.3593129 -47.5857431 89.62878204 -48.34428406 88.87611389 C-49.88593009 87.34384336 -51.42618246 85.81016946 -52.96508789 84.27514648 C-55.31666524 81.93335209 -57.67870168 79.60244126 -60.04101562 77.27148438 C-61.54492755 75.77409679 -63.0482052 74.27607184 -64.55078125 72.77734375 C-65.60547356 71.74117165 -65.60547356 71.74117165 -66.68147278 70.68406677 C-72.68819472 64.64980865 -75.51988716 59.43952526 -76.0546875 50.87109375 C-75.93035807 44.34379849 -74.27559056 39.07530934 -69.8671875 34.20629883 C-69.24295898 33.51613678 -68.61873047 32.82597473 -67.97558594 32.11489868 C-64.74276967 28.65411333 -61.45570489 25.25330895 -58.125 21.88671875 C-57.39684082 21.15048782 -56.66868164 20.4142569 -55.91845703 19.65571594 C-54.39046215 18.1139949 -52.86098317 16.57374344 -51.33007812 15.03491211 C-49.77221058 13.46545524 -48.2188384 11.89152383 -46.66992188 10.31323242 C-44.41469274 8.01534839 -42.14651533 5.73099146 -39.875 3.44921875 C-39.18937988 2.74609055 -38.50375977 2.04296234 -37.79736328 1.31852722 C-26.31836939 -10.10939696 -12.19359384 -10.56802269 0 0 Z " fill="#ED9419" transform="translate(85,16)"/>
</svg>
