<?xml version="1.0" encoding="UTF-8"?>
<svg version="1.1" xmlns="http://www.w3.org/2000/svg" width="500" height="500">
<path d="M0 0 C3.78654787 1.89327394 4.63281717 4.11419555 6 8 C6.34014246 9.68485309 6.6209906 11.38246315 6.8503418 13.0859375 C6.98802979 14.08320358 7.12571777 15.08046967 7.26757812 16.10795593 C7.41001953 17.18608047 7.55246094 18.26420502 7.69921875 19.375 C7.85495361 20.51101151 8.01068848 21.64702301 8.17114258 22.81745911 C8.50660514 25.2663503 8.83938477 27.7156102 9.16976929 30.16519165 C10.04631699 36.65774144 10.94426688 43.14731217 11.84375 49.63671875 C12.02475754 50.94412521 12.20576508 52.25153168 12.39225769 53.59855652 C14.03004668 65.35724253 15.82727693 77.08724082 17.6875 88.8125 C19.88696163 102.71398322 21.99769557 116.62221353 23.9375 130.5625 C24.09936295 131.71656845 24.09936295 131.71656845 24.26449585 132.89395142 C24.56382032 135.03432044 24.85901223 137.1752086 25.15234375 139.31640625 C25.31726318 140.51724854 25.48218262 141.71809082 25.65209961 142.95532227 C26 146 26 146 26 150 C27.09671021 149.97643433 27.09671021 149.97643433 28.21557617 149.95239258 C31.5394716 149.88989649 34.8632432 149.85096248 38.1875 149.8125 C39.33798828 149.78736328 40.48847656 149.76222656 41.67382812 149.73632812 C43.34155273 149.72182617 43.34155273 149.72182617 45.04296875 149.70703125 C46.06414795 149.6913208 47.08532715 149.67561035 48.13745117 149.65942383 C51.49285893 150.05863865 53.32066609 150.96318797 56 153 C57.85868914 157.10460518 58.34637101 159.03380718 56.8125 163.3125 C55 166 55 166 52 168 C49.30090294 168.20789293 46.70754325 168.30403472 44.0078125 168.30078125 C42.83338089 168.30720894 42.83338089 168.30720894 41.63522339 168.31376648 C39.97931891 168.31950706 38.32338921 168.32001203 36.66748047 168.31567383 C34.1411603 168.31252017 31.6160186 168.33595305 29.08984375 168.36132812 C27.47916814 168.36360187 25.86848939 168.36430426 24.2578125 168.36328125 C23.50557404 168.372491 22.75333557 168.38170074 21.978302 168.39118958 C17.4908015 168.351859 14.46555984 167.94119231 11 165 C9.34606409 161.85151271 8.65390003 158.76858473 8.10546875 155.2734375 C7.957146 154.34184814 7.80882324 153.41025879 7.65600586 152.45043945 C7.50139893 151.43554443 7.34679199 150.42064941 7.1875 149.375 C7.01935791 148.29758545 6.85121582 147.2201709 6.67797852 146.11010742 C3.17995285 123.44843185 0.04829588 100.72591317 -3 78 C-4.6029855 79.6029855 -4.3929114 81.46282594 -4.6484375 83.6796875 C-4.82342773 85.15211914 -4.82342773 85.15211914 -5.00195312 86.65429688 C-5.12505859 87.71712891 -5.24816406 88.77996094 -5.375 89.875 C-6.28240188 97.4426423 -7.25438834 104.9803786 -8.5 112.5 C-9.68689242 119.68944223 -10.6283224 126.89086942 -11.5 134.125 C-11.98945352 138.08472305 -12.4891964 142.04297477 -13 146 C-13.11311523 146.87688477 -13.22623047 147.75376953 -13.34277344 148.65722656 C-13.66115236 151.02615033 -14.0111672 153.3876856 -14.375 155.75 C-14.46458984 156.43465332 -14.55417969 157.11930664 -14.64648438 157.82470703 C-15.21222419 161.26043439 -15.9004163 162.89726807 -18.34765625 165.421875 C-22.37752174 167.81961529 -24.36050471 167.58914226 -29 167 C-31.43119623 165.12984906 -32.64069173 163.71861655 -34 161 C-33.92353821 159.18997192 -33.92353821 159.18997192 -33.6418457 157.00439453 C-33.54094635 156.19617249 -33.440047 155.38795044 -33.33609009 154.55523682 C-33.22518036 153.71200867 -33.11427063 152.86878052 -33 152 C-32.79969692 150.38525718 -32.59942052 148.77051105 -32.39916992 147.15576172 C-32.17702306 145.41364073 -31.9540868 143.67162026 -31.73046875 141.9296875 C-31.60950836 140.98269989 -31.48854797 140.03571228 -31.36392212 139.06002808 C-30.97260365 135.99824618 -30.58016036 132.93661007 -30.1875 129.875 C-29.91559541 127.75293139 -29.64370423 125.63086107 -29.37182617 123.50878906 C-28.96396251 120.32581905 -28.55597726 117.14286488 -28.14759827 113.95996094 C-27.45796672 108.5833641 -26.77130298 103.20642131 -26.09190369 97.82852173 C-25.82759232 95.73728559 -25.56209383 93.64620394 -25.29614258 91.55517578 C-24.98914001 89.13975826 -24.68406173 86.72409477 -24.3815918 84.30810547 C-23.66422523 78.6921029 -22.86591204 73.09864259 -21.95671082 67.51097107 C-20.63415316 59.38246747 -19.49110428 51.25004726 -18.5 43.07421875 C-18.37634567 42.06072357 -18.25269135 41.04722839 -18.12528992 40.00302124 C-17.61829302 35.83263934 -17.11427125 31.66200463 -16.625 27.48950195 C-16.25999121 24.39144232 -15.88109727 21.29533475 -15.5 18.19921875 C-15.39365234 17.26172287 -15.28730469 16.32422699 -15.17773438 15.35832214 C-14.55205742 10.36722774 -13.76951471 6.32269997 -11 2 C-7.29916839 -0.46722108 -4.29296233 -0.55504968 0 0 Z " fill="#727272" transform="translate(252,166)"/>
<path d="M0 0 C4.51315789 2.02631579 4.51315789 2.02631579 6 5 C6.58394161 12.24087591 6.58394161 12.24087591 4.125 15.4375 C-0.12871785 18.56523372 -3.84372784 18.58731408 -9 18 C-12.5625 16.5625 -12.5625 16.5625 -15 14 C-15.81648432 10.82872757 -15.73055874 8.18274427 -15 5 C-11.33882629 -0.97991706 -6.41369714 -0.98996311 0 0 Z " fill="#777777" transform="translate(205,316)"/>
<path d="M0 0 C0.33 0 0.66 0 1 0 C2.94787826 5.04825117 3.53293616 9.78910113 4 15.125 C4.52048233 20.58198891 5.08810098 25.97610764 6.0625 31.375 C7.17346454 37.55091312 7.61644143 43.74193914 8 50 C5.93511587 46.90267381 5.55169668 45.33219837 5 41.73046875 C4.8359668 40.6830249 4.67193359 39.63558105 4.50292969 38.55639648 C4.33696289 37.44466064 4.17099609 36.3329248 4 35.1875 C3.82629883 34.05707275 3.65259766 32.92664551 3.47363281 31.76196289 C3.13060584 29.51957691 2.79100442 27.27666383 2.45507812 25.03320312 C2.07886059 22.52562443 1.69185095 20.02029283 1.296875 17.515625 C0.39381811 11.60705275 -0.23911298 5.97782462 0 0 Z " fill="#B6B6B6" transform="translate(255,279)"/>
<path d="M0 0 C0.33 0 0.66 0 1 0 C1.15332724 7.24045318 0.72674853 14.36651445 0.12109375 21.58203125 C0.01294094 24.6347314 0.24371715 27.05890004 1 30 C-0.70840281 28.36587557 -1.93453047 27.13093906 -3 25 C-2.73957128 21.97902684 -2.39185001 19.00548955 -2 16 C-1.82729605 14.61598861 -1.65548858 13.23186517 -1.484375 11.84765625 C-0.99534514 7.89769844 -0.49903883 3.94870527 0 0 Z " fill="#C5C5C5" transform="translate(221,302)"/>
<path d="M0 0 C0.33 0 0.66 0 1 0 C2.77401632 4.62974991 3.39641621 8.96044843 3.625 13.875 C3.66367187 14.56335938 3.70234375 15.25171875 3.7421875 15.9609375 C3.83548166 17.64023246 3.91878238 19.32007767 4 21 C0.42229302 14.32562227 -0.27166506 7.47078902 0 0 Z " fill="#A5A5A5" transform="translate(255,279)"/>
<path d="M0 0 C0.66 0.33 1.32 0.66 2 1 C1.34 2.32 0.68 3.64 0 5 C-0.66 5 -1.32 5 -2 5 C-1.67 7.97 -1.34 10.94 -1 14 C-1.66 13.67 -2.32 13.34 -3 13 C-3.4726477 4.80743982 -3.4726477 4.80743982 -1.5 1.4375 C-0.7575 0.7259375 -0.7575 0.7259375 0 0 Z " fill="#AFAFAF" transform="translate(193,317)"/>
<path d="M0 0 C0.33 0 0.66 0 1 0 C1.38133299 1.9914056 1.71325582 3.99279077 2 6 C1.67 6.33 1.34 6.66 1 7 C0.6068352 8.67884238 0.25914548 10.36850045 -0.0625 12.0625 C-0.23910156 12.98160156 -0.41570312 13.90070313 -0.59765625 14.84765625 C-0.73042969 15.55792969 -0.86320313 16.26820313 -1 17 C-2.3357457 13.22628488 -1.72408671 10.14168653 -1.0625 6.25 C-0.86785156 5.07953125 -0.67320312 3.9090625 -0.47265625 2.703125 C-0.31667969 1.81109375 -0.16070312 0.9190625 0 0 Z " fill="#8B8B8B" transform="translate(240,171)"/>
</svg>
